<?xml version="1.0" encoding="utf-8"?>
<!-- Generator: Adobe Illustrator 26.5.0, SVG Export Plug-In . SVG Version: 6.00 Build 0)  -->
<svg version="1.1" id="Layer_1" xmlns="http://www.w3.org/2000/svg" xmlns:xlink="http://www.w3.org/1999/xlink" x="0px" y="0px"
	 viewBox="0 0 350.15 228.09" style="enable-background:new 0 0 350.15 228.09;" xml:space="preserve">
<style type="text/css">
	.st0{font-family:'Grandma-Bold';}
	.st1{font-size:36px;}
	.st2{fill:#ADDCB1;}
	.st3{fill:#617C62;}
	.st4{fill:url(#SVGID_1_);}
	.st5{fill:#C1DCAD;}
	.st6{fill:#B5DCAD;}
	.st7{opacity:0.45;fill:url(#SVGID_00000173880376075185171420000000094934021035635863_);enable-background:new    ;}
	.st8{opacity:0.45;fill:url(#SVGID_00000142870649108489662170000011557871939496833701_);enable-background:new    ;}
	.st9{opacity:0.45;fill:url(#SVGID_00000165199143577471853060000014848489924500584348_);enable-background:new    ;}
	.st10{opacity:0.45;fill:url(#SVGID_00000072260438997657742090000000935174752251563947_);enable-background:new    ;}
	.st11{opacity:0.45;fill:url(#SVGID_00000028309711038817770510000006882348212921678751_);enable-background:new    ;}
	.st12{opacity:0.45;fill:url(#SVGID_00000137114011011893062770000016819593176641050020_);enable-background:new    ;}
	.st13{fill:url(#SVGID_00000020380807532385331960000007478976959791752608_);}
</style>
<g id="BG">
	<text transform="matrix(1 0 0 1 76.6832 218.5512)" class="st0 st1">Healthy Living</text>
</g>
<g id="graphics">
	<g>
		<g>
			<path class="st2" d="M121.37,122.8c-12.84-41.87-34.83-58.1-44.72-66.69c-26.53,18.65-40.53,43.13-44.68,51.28h-0.06
				c0,0,10.42,2.03,17.67,10.78s5.25,8.75,5.25,8.75s-8.44-7.16-18.47-11.59c10.07,16.6,35.29,50.34,80.06,61.86
				C118.69,166.27,122.07,145.76,121.37,122.8z"/>
			<path class="st3" d="M120.96,36.29c20.18,24.89,24.06,58.3,22.26,87.45c5.05,21.42,6.94,42.85,5.78,58.98
				c9.39-28.53,12.26-55.13,11.78-78.15C147.6,57.68,120.96,36.29,120.96,36.29z"/>
			<path class="st3" d="M217.99,130.24c-3.65,25.34-10.17,45.16-10.18,45.17c18.87-26.71,29.22-54.29,34.84-77.93
				c-3.74-28.32-13.24-48.91-13.24-48.91C231.92,78.12,225.95,106.71,217.99,130.24z"/>
			
				<linearGradient id="SVGID_1_" gradientUnits="userSpaceOnUse" x1="278.7671" y1="147.0522" x2="22.1314" y2="169.9306" gradientTransform="matrix(1 0 0 -1 0 225.22)">
				<stop  offset="0.2242" style="stop-color:#0B0078"/>
				<stop  offset="0.6364" style="stop-color:#0006C0"/>
				<stop  offset="0.8061" style="stop-color:#0071BC"/>
			</linearGradient>
			<path class="st4" d="M272.11,77.69c0.01-0.06,0.03-0.13,0.04-0.19C272.03,77.4,272.02,77.47,272.11,77.69z"/>
			<path class="st3" d="M266.08,99.8c8.29,22.66,10.4,39.37,10.4,39.37c2.43-11.09,5.13-27.54,6.08-39.98
				c-4.95-11.69-9.88-20.03-10.46-21.5C270.5,85.09,268.45,92.51,266.08,99.8z"/>
			<path class="st3" d="M182.07,125.77c0.19,31.02-5.2,56.3-5.2,56.3c13.95-27.95,22.07-52.65,26.1-74.05
				c-4.44-47.7-25.32-79.12-25.32-79.12C188.09,61.58,186.85,96.69,182.07,125.77z"/>
			<path class="st3" d="M315.48,58.16c8.85,14.79,13.92,32.36,16.77,49.02l17.9-47.02L315.48,58.16z"/>
			<path class="st3" d="M293.15,74.83c3.23,8.01,4.71,20.35,5.19,32.86c10.17,22.04,12.14,46.14,12.14,46.14
				c3.95-20.4,3.13-39.42,0.58-54.57C301.69,84.44,293.15,74.83,293.15,74.83z"/>
			<path class="st5" d="M229.41,48.57c-9.6-5.01-19.4-8.73-29.18-11.37c10.1,28.58,10.39,77.27-23.36,144.87
				c6.39-0.7,12.87-1.8,19.36-3.37C208.18,157.77,234.19,104.9,229.41,48.57z"/>
			<path class="st6" d="M148.99,182.72c5.79,0.35,11.75,0.42,17.83,0.14c8.76-22.46,30.46-92.49,10.83-153.97
				c-11.07-1.27-21.88-1.33-32.09-0.49C153.68,46.99,173.47,108.33,148.99,182.72z"/>
			<path class="st2" d="M134.34,180.94c7.05-23.44,25.46-98.62-11.86-144.65c-1.29,0.31-6.78,2.02-12.52,3.97
				c-5.13,1.74-10.46,3.67-13.17,4.96c36.09,41.26,25.96,109.04,21.11,132.21C123.06,178.82,128.57,180.01,134.34,180.94z"/>
			
				<linearGradient id="SVGID_00000177478456837145453630000013410257012132123785_" gradientUnits="userSpaceOnUse" x1="133.1351" y1="95.0211" x2="106.5146" y2="69.3687" gradientTransform="matrix(1 0 0 -1 0 225.22)">
				<stop  offset="0" style="stop-color:#FFFFFF"/>
				<stop  offset="0.1109" style="stop-color:#F7F7F7"/>
				<stop  offset="0.2793" style="stop-color:#E2E2E2"/>
				<stop  offset="0.4842" style="stop-color:#C0C0C0"/>
				<stop  offset="0.7178" style="stop-color:#909090"/>
				<stop  offset="0.9727" style="stop-color:#545454"/>
				<stop  offset="1" style="stop-color:#4D4D4D"/>
			</linearGradient>
			
				<path style="opacity:0.45;fill:url(#SVGID_00000177478456837145453630000013410257012132123785_);enable-background:new    ;" d="
				M121.37,122.81c-0.98-3.2-2.01-6.25-3.09-9.16c-1.57,16.71-7.17,36.1-19.99,57.3c5.64,2.46,11.69,4.56,18.13,6.22
				C118.69,166.25,122.06,145.75,121.37,122.81z"/>
			<path class="st2" d="M315.48,58.16c-4.18,2.89-11,8.33-14.33,9.67c6.04,9.75,17.25,45.1,9.33,86c6.67,3.67,15.6,7.96,24.55,13.04
				C335.28,164.84,340.66,100.25,315.48,58.16z"/>
			<path class="st2" d="M272.15,77.49c-8-6.33-15.76-11.12-23.69-17c-2.11,27.46-10.55,72.31-40.65,114.91
				c10.04-3.3,20.05-7.8,29.77-13.71C250.31,141.19,265.31,109.13,272.15,77.49z"/>
			<path class="st2" d="M297.15,145.49c1.78-15.69,3-53.33-4-70.67c-3.11,2.93-8.17,7.6-10.67,10.33c1.79,9.55-2.42,37.63-6,54
				C282.15,140.83,289.48,142.49,297.15,145.49z"/>
			
				<linearGradient id="SVGID_00000167362452180015341890000015067451185840032190_" gradientUnits="userSpaceOnUse" x1="268.2849" y1="145.9549" x2="213.2849" y2="92.9549" gradientTransform="matrix(1 0 0 -1 0 225.22)">
				<stop  offset="0" style="stop-color:#FFFFFF"/>
				<stop  offset="0.1109" style="stop-color:#F7F7F7"/>
				<stop  offset="0.2793" style="stop-color:#E2E2E2"/>
				<stop  offset="0.4842" style="stop-color:#C0C0C0"/>
				<stop  offset="0.7178" style="stop-color:#909090"/>
				<stop  offset="0.9727" style="stop-color:#545454"/>
				<stop  offset="1" style="stop-color:#4D4D4D"/>
			</linearGradient>
			
				<path style="opacity:0.45;fill:url(#SVGID_00000167362452180015341890000015067451185840032190_);enable-background:new    ;" d="
				M248.46,60.5c-2.11,27.46-10.55,72.31-40.65,114.91c0,0,50.23-55.34,53.09-106.15C256.76,66.39,252.64,63.59,248.46,60.5z"/>
			
				<linearGradient id="SVGID_00000158709027920797401900000000396196201097369522_" gradientUnits="userSpaceOnUse" x1="232.185" y1="163.0332" x2="180.8447" y2="113.5598" gradientTransform="matrix(1 0 0 -1 0 225.22)">
				<stop  offset="0" style="stop-color:#FFFFFF"/>
				<stop  offset="0.1109" style="stop-color:#F7F7F7"/>
				<stop  offset="0.2793" style="stop-color:#E2E2E2"/>
				<stop  offset="0.4842" style="stop-color:#C0C0C0"/>
				<stop  offset="0.7178" style="stop-color:#909090"/>
				<stop  offset="0.9727" style="stop-color:#545454"/>
				<stop  offset="1" style="stop-color:#4D4D4D"/>
			</linearGradient>
			
				<path style="opacity:0.45;fill:url(#SVGID_00000158709027920797401900000000396196201097369522_);enable-background:new    ;" d="
				M186.33,162C220,108.67,216.32,59.1,214.82,41.98c-4.85-1.87-9.72-3.46-14.58-4.77c9.1,25.74,10.22,67.81-14.31,125.31
				C186.06,162.34,186.21,162.19,186.33,162z"/>
			
				<linearGradient id="SVGID_00000129163687452781265420000013064139821716474286_" gradientUnits="userSpaceOnUse" x1="296.8277" y1="123.5961" x2="276.5282" y2="104.0347" gradientTransform="matrix(1 0 0 -1 0 225.22)">
				<stop  offset="0" style="stop-color:#FFFFFF"/>
				<stop  offset="0.1109" style="stop-color:#F7F7F7"/>
				<stop  offset="0.2793" style="stop-color:#E2E2E2"/>
				<stop  offset="0.4842" style="stop-color:#C0C0C0"/>
				<stop  offset="0.7178" style="stop-color:#909090"/>
				<stop  offset="0.9727" style="stop-color:#545454"/>
				<stop  offset="1" style="stop-color:#4D4D4D"/>
			</linearGradient>
			
				<path style="opacity:0.45;fill:url(#SVGID_00000129163687452781265420000013064139821716474286_);enable-background:new    ;" d="
				M276.48,139.16c2.72,0.8,5.83,1.6,9.17,2.55c4.41-26.51-1.62-50.58-3.04-55.7C284.03,96.28,279.97,123.25,276.48,139.16z"/>
			
				<linearGradient id="SVGID_00000157301327675274314480000008899966109824800683_" gradientUnits="userSpaceOnUse" x1="308.55" y1="159.4977" x2="317.55" y2="57.1643" gradientTransform="matrix(1 0 0 -1 0 225.22)">
				<stop  offset="0" style="stop-color:#FFFFFF"/>
				<stop  offset="0.1109" style="stop-color:#F7F7F7"/>
				<stop  offset="0.2793" style="stop-color:#E2E2E2"/>
				<stop  offset="0.4842" style="stop-color:#C0C0C0"/>
				<stop  offset="0.7178" style="stop-color:#909090"/>
				<stop  offset="0.9727" style="stop-color:#545454"/>
				<stop  offset="1" style="stop-color:#4D4D4D"/>
			</linearGradient>
			
				<path style="opacity:0.45;fill:url(#SVGID_00000157301327675274314480000008899966109824800683_);enable-background:new    ;" d="
				M310.48,153.83c2.26,1.24,4.72,2.53,7.32,3.87c13.11-60.9-16.65-89.87-16.65-89.87C307.19,77.58,318.4,112.93,310.48,153.83z"/>
			
				<linearGradient id="SVGID_00000018236400392771981190000007431490513360478636_" gradientUnits="userSpaceOnUse" x1="145.56" y1="119.9353" x2="169.2451" y2="119.9353" gradientTransform="matrix(1 0 0 -1 0 225.22)">
				<stop  offset="0" style="stop-color:#FFFFFF"/>
				<stop  offset="0.1878" style="stop-color:#FDFFFF"/>
				<stop  offset="0.2925" style="stop-color:#F5FEFE"/>
				<stop  offset="0.3769" style="stop-color:#E7FCFC"/>
				<stop  offset="0.4503" style="stop-color:#D3F9F9"/>
				<stop  offset="0.5168" style="stop-color:#BAF6F6"/>
				<stop  offset="0.5781" style="stop-color:#9AF2F1"/>
				<stop  offset="0.6355" style="stop-color:#75EDEC"/>
				<stop  offset="0.6884" style="stop-color:#4BE7E7"/>
				<stop  offset="0.7253" style="stop-color:#29E3E2"/>
				<stop  offset="0.7395" style="stop-color:#4CE8E7"/>
				<stop  offset="0.7593" style="stop-color:#76EDEC"/>
				<stop  offset="0.7808" style="stop-color:#9BF2F1"/>
				<stop  offset="0.8038" style="stop-color:#BAF6F6"/>
				<stop  offset="0.8287" style="stop-color:#D3F9F9"/>
				<stop  offset="0.8563" style="stop-color:#E7FCFC"/>
				<stop  offset="0.8881" style="stop-color:#F5FEFE"/>
				<stop  offset="0.9278" style="stop-color:#FDFFFF"/>
				<stop  offset="1" style="stop-color:#FFFFFF"/>
			</linearGradient>
			
				<path style="opacity:0.45;fill:url(#SVGID_00000018236400392771981190000007431490513360478636_);enable-background:new    ;" d="
				M162.27,27.88c-5.7-0.11-11.29,0.08-16.71,0.52c8.12,18.59,27.92,79.93,3.43,154.32C180.93,105.75,166.63,42.32,162.27,27.88z"/>
			
				<linearGradient id="SVGID_00000145769228798894738110000001655425310025649070_" gradientUnits="userSpaceOnUse" x1="334.9994" y1="58.78" x2="335.1527" y2="58.78" gradientTransform="matrix(1 0 0 -1 0 225.22)">
				<stop  offset="0.2242" style="stop-color:#0B0078"/>
				<stop  offset="0.6364" style="stop-color:#0006C0"/>
				<stop  offset="0.8061" style="stop-color:#0071BC"/>
			</linearGradient>
			<path style="fill:url(#SVGID_00000145769228798894738110000001655425310025649070_);" d="M335.04,166.78
				c0.04,0.04,0.07,0.08,0.11,0.12c-0.01-0.31-0.03-0.61-0.04-0.92C335.08,166.37,335.06,166.64,335.04,166.78z"/>
		</g>
	</g>
	<path class="st2" d="M275.76,32.14c-3.55,5.15-8.31,9.35-13.4,12.99c2.36-3.7,2.39-8.4,1.94-12.77c-0.44-4.37-1.27-8.81-0.33-13.1
		c0.82-3.74,3-7.17,6.04-9.49c5.31-4.05,12.94-4.74,17.33-9.77c-1.4,1.88-1.76,4.35-1.71,6.7c0.15,7.8,4.15,15.47,2.63,23.13
		c-0.81,4.08-3.11,7.68-5.39,11.16c-1.35,2.06-2.74,4.17-4.73,5.61c-3.77,2.74-8.83,2.59-13.48,2.32c3.6-2.06,6.16-5.5,8.56-8.89
		c2.58-3.66,5.1-7.42,6.75-11.59c1.23-3.11,2.98-8.61,1.4-11.83C280.83,22.26,278.99,27.45,275.76,32.14z"/>
	<path class="st5" d="M254.39,28.17c2.48,3.6,5.82,6.55,9.38,9.1c-1.65-2.59-1.67-5.88-1.36-8.94c0.31-3.06,0.89-6.17,0.23-9.17
		c-0.57-2.62-2.1-5.02-4.23-6.64c-3.72-2.84-9.06-3.32-12.13-6.84c0.98,1.32,1.23,3.04,1.2,4.69c-0.1,5.46-2.9,10.83-1.84,16.19
		c0.57,2.85,2.18,5.38,3.77,7.81c0.94,1.44,1.92,2.92,3.31,3.93c2.64,1.92,6.18,1.81,9.44,1.62c-2.52-1.45-4.32-3.85-5.99-6.22
		c-1.81-2.56-3.57-5.19-4.73-8.11c-0.86-2.17-2.09-6.03-0.98-8.28C250.84,21.25,252.13,24.89,254.39,28.17z"/>
	<path class="st2" d="M35.9,174.23c8.35,4.45,18.05,6.85,27.91,8.3c-5.71-3.32-8.39-9.49-10.17-15.53s-3.01-12.43-6.86-17.47
		c-3.36-4.39-8.64-7.47-14.63-8.52C21.7,139.17,9.59,143.27,0,139.54c3.22,1.55,5.15,4.57,6.4,7.69
		c4.16,10.37,2.32,23.09,8.96,32.17c3.54,4.84,9.11,8.06,14.56,11.15c3.23,1.83,6.56,3.69,10.44,4.28
		c7.34,1.13,15.04-2.4,22.04-5.81c-6.69-0.35-12.58-3.19-18.16-6.08c-6.03-3.12-12.02-6.41-16.9-10.82
		c-3.63-3.28-9.42-9.38-8.81-14.65C22.54,164.56,28.3,170.18,35.9,174.23z"/>
</g>
</svg>
